<svg xmlns="http://www.w3.org/2000/svg" xmlns:xlink="http://www.w3.org/1999/xlink" version="1.1" width="14.8396" height="14.171143" viewBox="0 0 14.8396 14.171143">
<path transform="matrix(1,0,0,-1,.011719,14.171204)" d="M7.409101 14.171143C7.549114 14.171233 7.686358 14.132129 7.805297 14.058255 7.924237 13.984383 8.020122 13.878691 8.082101 13.753142L9.964101 9.938143 14.174102 9.326143C14.312565 9.306033 14.442642 9.247593 14.549631 9.157426 14.65662 9.067259 14.736253 8.948963 14.77953 8.815908 14.822806 8.682853 14.828001 8.540344 14.794526 8.404491 14.761051 8.268639 14.690241 8.144859 14.590101 8.047142L11.544101 5.077143 12.263102 .885142C12.286415 .747303 12.270792 .605693 12.217992 .476251 12.165191 .346808 12.077308 .234673 11.964234 .152467 11.851162 .070261 11.71739 .021247 11.577972 .010942 11.438556 .000638 11.29903 .029453 11.1751 .094143L7.409101 2.074142 3.643101 .094143C3.519289 .029135 3.379767 .000036 3.240291 .010134 3.100815 .020231 2.966939 .069122 2.853782 .151286 2.740624 .23345 2.652692 .345615 2.599914 .475114 2.547135 .604612 2.531613 .746288 2.5551 .884143L3.2751 5.078142 .2271 8.047142C.126666 8.144819 .055599 8.268675 .021952 8.404673-.011696 8.540671-.006578 8.683376 .036724 8.816614 .080027 8.949854 .159783 9.0683 .266956 9.158532 .374128 9.248764 .504431 9.307174 .6431 9.327143L4.8531 9.938143 6.736101 13.753142C6.79808 13.878691 6.893966 13.984383 7.012905 14.058255 7.131844 14.132129 7.269087 14.171233 7.409101 14.171143ZM7.409101 11.726143 7.40918 8.921143C7.355395 8.812242 7.40916 9.659424 7.409181 8.645615 7.409181 7.920143 7.40918 8.421143 7.40918 8.421143L7.409181 7.921143 7.40918 6.421143C7.40918 5.921143 7.40918 4.770473 7.40918 5.421143 7.40918 6.418514 7.409181 3.921143 7.409101 4.921143L7.409181 3.921143 7.409101 3.671291C7.287504 3.671291 7.409181 3.921143 7.409101 3.671291 7.530698 3.671291 7.650471 3.641726 7.758101 3.585142L10.528101 2.129143 9.9981 5.213142C9.977557 5.333039 9.986485 5.456135 10.024116 5.571813 10.061746 5.68749 10.126948 5.792279 10.214101 5.877143L12.454102 8.060143 9.358101 8.510143C9.237919 8.527707 9.1238 8.574196 9.025557 8.645615 8.927314 8.717031 8.847885 8.811241 8.794101 8.920143L7.409101 11.726143Z" fill="#ffc107"/>
</svg>
